<mxfile host="app.diagrams.net" modified="2024-01-25T13:32:44.235Z" agent="Mozilla/5.0 (Windows NT 10.0; Win64; x64) AppleWebKit/537.36 (KHTML, like Gecko) Chrome/120.0.0.0 Safari/537.36" version="22.1.17" etag="6k4iTHnb7X6gV4Q9F4HJ" type="device">
  <diagram id="C5RBs43oDa-KdzZeNtuy" name="Page-1">
    <mxGraphModel dx="1235" dy="655" grid="1" gridSize="10" guides="1" tooltips="1" connect="1" arrows="1" fold="1" page="1" pageScale="1" pageWidth="827" pageHeight="1169" math="0" shadow="0">
      <root>
        <mxCell id="WIyWlLk6GJQsqaUBKTNV-0" />
        <mxCell id="WIyWlLk6GJQsqaUBKTNV-1" parent="WIyWlLk6GJQsqaUBKTNV-0" />
        <mxCell id="NVemf6xpcmu2RJ6jCJgR-0" style="edgeStyle=orthogonalEdgeStyle;rounded=0;orthogonalLoop=1;jettySize=auto;html=1;entryX=0.5;entryY=0;entryDx=0;entryDy=0;" edge="1" parent="WIyWlLk6GJQsqaUBKTNV-1" source="NVemf6xpcmu2RJ6jCJgR-1" target="NVemf6xpcmu2RJ6jCJgR-3">
          <mxGeometry relative="1" as="geometry" />
        </mxCell>
        <mxCell id="NVemf6xpcmu2RJ6jCJgR-1" value="CHIIPMUNK" style="rounded=1;whiteSpace=wrap;html=1;fontSize=12;glass=0;strokeWidth=1;shadow=0;" vertex="1" parent="WIyWlLk6GJQsqaUBKTNV-1">
          <mxGeometry x="736.5" y="340" width="120" height="40" as="geometry" />
        </mxCell>
        <mxCell id="NVemf6xpcmu2RJ6jCJgR-2" style="edgeStyle=orthogonalEdgeStyle;rounded=0;orthogonalLoop=1;jettySize=auto;html=1;endArrow=classicThin;endFill=1;" edge="1" parent="WIyWlLk6GJQsqaUBKTNV-1" source="NVemf6xpcmu2RJ6jCJgR-3" target="NVemf6xpcmu2RJ6jCJgR-7">
          <mxGeometry relative="1" as="geometry" />
        </mxCell>
        <mxCell id="NVemf6xpcmu2RJ6jCJgR-3" value="New Release Tag Created" style="ellipse;whiteSpace=wrap;html=1;aspect=fixed;" vertex="1" parent="WIyWlLk6GJQsqaUBKTNV-1">
          <mxGeometry x="736.5" y="430" width="121" height="121" as="geometry" />
        </mxCell>
        <mxCell id="NVemf6xpcmu2RJ6jCJgR-4" style="edgeStyle=orthogonalEdgeStyle;rounded=0;orthogonalLoop=1;jettySize=auto;html=1;entryX=0.5;entryY=0;entryDx=0;entryDy=0;" edge="1" parent="WIyWlLk6GJQsqaUBKTNV-1" source="NVemf6xpcmu2RJ6jCJgR-7" target="NVemf6xpcmu2RJ6jCJgR-9">
          <mxGeometry relative="1" as="geometry" />
        </mxCell>
        <mxCell id="NVemf6xpcmu2RJ6jCJgR-5" style="edgeStyle=orthogonalEdgeStyle;rounded=0;orthogonalLoop=1;jettySize=auto;html=1;entryX=0.5;entryY=0;entryDx=0;entryDy=0;" edge="1" parent="WIyWlLk6GJQsqaUBKTNV-1" source="NVemf6xpcmu2RJ6jCJgR-7" target="NVemf6xpcmu2RJ6jCJgR-17">
          <mxGeometry relative="1" as="geometry" />
        </mxCell>
        <mxCell id="NVemf6xpcmu2RJ6jCJgR-48" style="edgeStyle=orthogonalEdgeStyle;rounded=0;orthogonalLoop=1;jettySize=auto;html=1;exitX=0.5;exitY=1;exitDx=0;exitDy=0;" edge="1" parent="WIyWlLk6GJQsqaUBKTNV-1" source="NVemf6xpcmu2RJ6jCJgR-7" target="NVemf6xpcmu2RJ6jCJgR-42">
          <mxGeometry relative="1" as="geometry" />
        </mxCell>
        <mxCell id="NVemf6xpcmu2RJ6jCJgR-7" value="CHIIPMUNK DISTRIBUTION" style="rounded=1;whiteSpace=wrap;html=1;fontSize=12;glass=0;strokeWidth=1;shadow=0;" vertex="1" parent="WIyWlLk6GJQsqaUBKTNV-1">
          <mxGeometry x="695" y="610" width="204" height="40" as="geometry" />
        </mxCell>
        <mxCell id="NVemf6xpcmu2RJ6jCJgR-8" style="edgeStyle=orthogonalEdgeStyle;rounded=0;orthogonalLoop=1;jettySize=auto;html=1;entryX=0.5;entryY=0;entryDx=0;entryDy=0;" edge="1" parent="WIyWlLk6GJQsqaUBKTNV-1" source="NVemf6xpcmu2RJ6jCJgR-38" target="NVemf6xpcmu2RJ6jCJgR-14">
          <mxGeometry relative="1" as="geometry" />
        </mxCell>
        <mxCell id="NVemf6xpcmu2RJ6jCJgR-9" value="Windows worflow&amp;nbsp;" style="rounded=1;whiteSpace=wrap;html=1;fontSize=12;glass=0;strokeWidth=1;shadow=0;" vertex="1" parent="WIyWlLk6GJQsqaUBKTNV-1">
          <mxGeometry x="395" y="680" width="120" height="40" as="geometry" />
        </mxCell>
        <mxCell id="NVemf6xpcmu2RJ6jCJgR-11" value="Ubuntu / APT" style="rounded=1;whiteSpace=wrap;html=1;fontSize=12;glass=0;strokeWidth=1;shadow=0;" vertex="1" parent="WIyWlLk6GJQsqaUBKTNV-1">
          <mxGeometry x="1048.5" y="820" width="120" height="40" as="geometry" />
        </mxCell>
        <mxCell id="NVemf6xpcmu2RJ6jCJgR-14" value="Chocolatey" style="rounded=1;whiteSpace=wrap;html=1;fontSize=12;glass=0;strokeWidth=1;shadow=0;" vertex="1" parent="WIyWlLk6GJQsqaUBKTNV-1">
          <mxGeometry x="395" y="810" width="120" height="40" as="geometry" />
        </mxCell>
        <mxCell id="NVemf6xpcmu2RJ6jCJgR-16" style="edgeStyle=orthogonalEdgeStyle;rounded=0;orthogonalLoop=1;jettySize=auto;html=1;entryX=0.5;entryY=0;entryDx=0;entryDy=0;" edge="1" parent="WIyWlLk6GJQsqaUBKTNV-1" source="NVemf6xpcmu2RJ6jCJgR-17" target="NVemf6xpcmu2RJ6jCJgR-23">
          <mxGeometry relative="1" as="geometry" />
        </mxCell>
        <mxCell id="NVemf6xpcmu2RJ6jCJgR-17" value="Linux workflow" style="rounded=1;whiteSpace=wrap;html=1;fontSize=12;glass=0;strokeWidth=1;shadow=0;" vertex="1" parent="WIyWlLk6GJQsqaUBKTNV-1">
          <mxGeometry x="1288.5" y="690" width="120" height="40" as="geometry" />
        </mxCell>
        <mxCell id="NVemf6xpcmu2RJ6jCJgR-18" style="edgeStyle=orthogonalEdgeStyle;rounded=0;orthogonalLoop=1;jettySize=auto;html=1;entryX=0.434;entryY=0.073;entryDx=0;entryDy=0;entryPerimeter=0;" edge="1" parent="WIyWlLk6GJQsqaUBKTNV-1" source="NVemf6xpcmu2RJ6jCJgR-17" target="NVemf6xpcmu2RJ6jCJgR-11">
          <mxGeometry relative="1" as="geometry" />
        </mxCell>
        <mxCell id="NVemf6xpcmu2RJ6jCJgR-19" value="&lt;font style=&quot;font-size: 12px;&quot;&gt;powershell script&amp;nbsp;&lt;b style=&quot;&quot;&gt;distribute_to_chocolatey.ps1&lt;/b&gt;&lt;br style=&quot;&quot;&gt;handles package creation and publish&lt;/font&gt;" style="rounded=1;whiteSpace=wrap;html=1;fontSize=12;glass=0;strokeWidth=1;shadow=0;verticalAlign=middle;" vertex="1" parent="WIyWlLk6GJQsqaUBKTNV-1">
          <mxGeometry x="360" y="900" width="210" height="70" as="geometry" />
        </mxCell>
        <mxCell id="NVemf6xpcmu2RJ6jCJgR-20" value="Chocolatey takes care of fetching latest version of &lt;b&gt;chipmunk&lt;/b&gt;." style="rounded=1;whiteSpace=wrap;html=1;fontSize=12;glass=0;strokeWidth=1;shadow=0;verticalAlign=middle;" vertex="1" parent="WIyWlLk6GJQsqaUBKTNV-1">
          <mxGeometry x="365" y="1030" width="180" height="50" as="geometry" />
        </mxCell>
        <mxCell id="NVemf6xpcmu2RJ6jCJgR-21" value="&lt;div style=&quot;color: rgb(204, 204, 204); background-color: rgb(31, 31, 31); font-family: Consolas, &amp;quot;Courier New&amp;quot;, monospace; line-height: 19px; font-size: 8px;&quot;&gt;&lt;div style=&quot;line-height: 19px;&quot;&gt;&lt;br&gt;&lt;/div&gt;&lt;/div&gt;" style="text;html=1;align=center;verticalAlign=middle;resizable=0;points=[];autosize=1;strokeColor=none;fillColor=none;" vertex="1" parent="WIyWlLk6GJQsqaUBKTNV-1">
          <mxGeometry x="495" y="600" width="20" height="30" as="geometry" />
        </mxCell>
        <mxCell id="NVemf6xpcmu2RJ6jCJgR-22" style="edgeStyle=orthogonalEdgeStyle;rounded=0;orthogonalLoop=1;jettySize=auto;html=1;entryX=0.5;entryY=0;entryDx=0;entryDy=0;" edge="1" parent="WIyWlLk6GJQsqaUBKTNV-1" source="NVemf6xpcmu2RJ6jCJgR-23">
          <mxGeometry relative="1" as="geometry">
            <mxPoint x="1339.5" y="895" as="targetPoint" />
          </mxGeometry>
        </mxCell>
        <mxCell id="NVemf6xpcmu2RJ6jCJgR-23" value="RHEL/Yum" style="rounded=1;whiteSpace=wrap;html=1;fontSize=12;glass=0;strokeWidth=1;shadow=0;" vertex="1" parent="WIyWlLk6GJQsqaUBKTNV-1">
          <mxGeometry x="1279.5" y="815" width="120" height="40" as="geometry" />
        </mxCell>
        <mxCell id="NVemf6xpcmu2RJ6jCJgR-24" style="edgeStyle=orthogonalEdgeStyle;rounded=0;orthogonalLoop=1;jettySize=auto;html=1;entryX=0.5;entryY=0;entryDx=0;entryDy=0;" edge="1" parent="WIyWlLk6GJQsqaUBKTNV-1">
          <mxGeometry relative="1" as="geometry">
            <mxPoint x="1339.5" y="945" as="sourcePoint" />
            <mxPoint x="1339.5" y="995" as="targetPoint" />
          </mxGeometry>
        </mxCell>
        <mxCell id="NVemf6xpcmu2RJ6jCJgR-25" value="a shell script fetches latest release and prepares the environment for packaging" style="rounded=1;whiteSpace=wrap;html=1;fontSize=12;glass=0;strokeWidth=1;shadow=0;verticalAlign=middle;" vertex="1" parent="WIyWlLk6GJQsqaUBKTNV-1">
          <mxGeometry x="1243.5" y="885" width="180" height="50" as="geometry" />
        </mxCell>
        <mxCell id="NVemf6xpcmu2RJ6jCJgR-26" value="a shell script creates the rpm package and publish it to official repository" style="rounded=1;whiteSpace=wrap;html=1;fontSize=12;glass=0;strokeWidth=1;shadow=0;verticalAlign=middle;" vertex="1" parent="WIyWlLk6GJQsqaUBKTNV-1">
          <mxGeometry x="1243.5" y="985" width="180" height="50" as="geometry" />
        </mxCell>
        <mxCell id="NVemf6xpcmu2RJ6jCJgR-27" style="edgeStyle=orthogonalEdgeStyle;rounded=0;orthogonalLoop=1;jettySize=auto;html=1;entryX=0.5;entryY=0;entryDx=0;entryDy=0;" edge="1" parent="WIyWlLk6GJQsqaUBKTNV-1">
          <mxGeometry relative="1" as="geometry">
            <mxPoint x="1120" y="950.0000000000002" as="sourcePoint" />
            <mxPoint x="1120" y="1000.0000000000002" as="targetPoint" />
          </mxGeometry>
        </mxCell>
        <mxCell id="NVemf6xpcmu2RJ6jCJgR-28" value="a shell script fetches latest release and prepares the environment for packaging" style="rounded=1;whiteSpace=wrap;html=1;fontSize=12;glass=0;strokeWidth=1;shadow=0;verticalAlign=middle;" vertex="1" parent="WIyWlLk6GJQsqaUBKTNV-1">
          <mxGeometry x="1030" y="895" width="180" height="50" as="geometry" />
        </mxCell>
        <mxCell id="NVemf6xpcmu2RJ6jCJgR-29" value="a shell script creates the package and publish it to official repository" style="rounded=1;whiteSpace=wrap;html=1;fontSize=12;glass=0;strokeWidth=1;shadow=0;verticalAlign=middle;" vertex="1" parent="WIyWlLk6GJQsqaUBKTNV-1">
          <mxGeometry x="1030" y="995" width="180" height="50" as="geometry" />
        </mxCell>
        <mxCell id="NVemf6xpcmu2RJ6jCJgR-33" value="&lt;div style=&quot;color: rgb(204, 204, 204); background-color: rgb(31, 31, 31); font-family: Consolas, &amp;quot;Courier New&amp;quot;, monospace; line-height: 19px; font-size: 8px;&quot;&gt;&lt;div style=&quot;line-height: 19px;&quot;&gt;&lt;br&gt;&lt;/div&gt;&lt;/div&gt;" style="text;html=1;align=center;verticalAlign=middle;resizable=0;points=[];autosize=1;strokeColor=none;fillColor=none;" vertex="1" parent="WIyWlLk6GJQsqaUBKTNV-1">
          <mxGeometry x="1001" y="600" width="20" height="30" as="geometry" />
        </mxCell>
        <mxCell id="NVemf6xpcmu2RJ6jCJgR-34" value="&lt;div style=&quot;color: rgb(204, 204, 204); background-color: rgb(31, 31, 31); font-family: Consolas, &amp;quot;Courier New&amp;quot;, monospace; line-height: 19px; font-size: 8px;&quot;&gt;&lt;div style=&quot;line-height: 19px;&quot;&gt;&lt;br&gt;&lt;/div&gt;&lt;/div&gt;" style="text;html=1;align=center;verticalAlign=middle;resizable=0;points=[];autosize=1;strokeColor=none;fillColor=none;" vertex="1" parent="WIyWlLk6GJQsqaUBKTNV-1">
          <mxGeometry x="830" y="660" width="20" height="30" as="geometry" />
        </mxCell>
        <mxCell id="NVemf6xpcmu2RJ6jCJgR-35" style="edgeStyle=orthogonalEdgeStyle;rounded=0;orthogonalLoop=1;jettySize=auto;html=1;entryX=0.436;entryY=-0.01;entryDx=0;entryDy=0;entryPerimeter=0;" edge="1" parent="WIyWlLk6GJQsqaUBKTNV-1" source="NVemf6xpcmu2RJ6jCJgR-11">
          <mxGeometry relative="1" as="geometry">
            <mxPoint x="1108.48" y="899.5" as="targetPoint" />
          </mxGeometry>
        </mxCell>
        <mxCell id="NVemf6xpcmu2RJ6jCJgR-36" value="&lt;b style=&quot;font-size: 14px;&quot;&gt;AUTOMATICALLY GETS TRIGGERED&lt;br style=&quot;font-size: 14px;&quot;&gt;ON NEW TAG &#39;x.x.x.&#39;&lt;br style=&quot;font-size: 14px;&quot;&gt;&lt;/b&gt;" style="text;html=1;align=center;verticalAlign=middle;resizable=0;points=[];autosize=1;strokeColor=none;fillColor=none;fontSize=14;labelBackgroundColor=default;" vertex="1" parent="WIyWlLk6GJQsqaUBKTNV-1">
          <mxGeometry x="1224.5" y="734" width="270" height="50" as="geometry" />
        </mxCell>
        <mxCell id="NVemf6xpcmu2RJ6jCJgR-37" value="" style="edgeStyle=orthogonalEdgeStyle;rounded=0;orthogonalLoop=1;jettySize=auto;html=1;entryX=0.5;entryY=0;entryDx=0;entryDy=0;" edge="1" parent="WIyWlLk6GJQsqaUBKTNV-1" source="NVemf6xpcmu2RJ6jCJgR-9" target="NVemf6xpcmu2RJ6jCJgR-38">
          <mxGeometry relative="1" as="geometry">
            <mxPoint x="455" y="695" as="sourcePoint" />
            <mxPoint x="455" y="810" as="targetPoint" />
          </mxGeometry>
        </mxCell>
        <mxCell id="NVemf6xpcmu2RJ6jCJgR-38" value="&lt;b style=&quot;font-size: 14px;&quot;&gt;MANUAL TRIGGER&lt;/b&gt;" style="text;html=1;align=center;verticalAlign=middle;resizable=0;points=[];autosize=1;strokeColor=none;fillColor=none;fontSize=14;labelBackgroundColor=default;" vertex="1" parent="WIyWlLk6GJQsqaUBKTNV-1">
          <mxGeometry x="380" y="744" width="150" height="30" as="geometry" />
        </mxCell>
        <mxCell id="NVemf6xpcmu2RJ6jCJgR-39" style="edgeStyle=orthogonalEdgeStyle;rounded=0;orthogonalLoop=1;jettySize=auto;html=1;entryX=0.452;entryY=-0.007;entryDx=0;entryDy=0;entryPerimeter=0;" edge="1" parent="WIyWlLk6GJQsqaUBKTNV-1" source="NVemf6xpcmu2RJ6jCJgR-14" target="NVemf6xpcmu2RJ6jCJgR-19">
          <mxGeometry relative="1" as="geometry" />
        </mxCell>
        <mxCell id="NVemf6xpcmu2RJ6jCJgR-40" style="edgeStyle=orthogonalEdgeStyle;rounded=0;orthogonalLoop=1;jettySize=auto;html=1;entryX=0.551;entryY=0.04;entryDx=0;entryDy=0;entryPerimeter=0;" edge="1" parent="WIyWlLk6GJQsqaUBKTNV-1" source="NVemf6xpcmu2RJ6jCJgR-19" target="NVemf6xpcmu2RJ6jCJgR-20">
          <mxGeometry relative="1" as="geometry" />
        </mxCell>
        <mxCell id="NVemf6xpcmu2RJ6jCJgR-41" style="edgeStyle=orthogonalEdgeStyle;rounded=0;orthogonalLoop=1;jettySize=auto;html=1;entryX=0.5;entryY=0;entryDx=0;entryDy=0;" edge="1" parent="WIyWlLk6GJQsqaUBKTNV-1" source="NVemf6xpcmu2RJ6jCJgR-42" target="NVemf6xpcmu2RJ6jCJgR-44">
          <mxGeometry relative="1" as="geometry">
            <mxPoint x="796.4999999999998" y="785" as="sourcePoint" />
          </mxGeometry>
        </mxCell>
        <mxCell id="NVemf6xpcmu2RJ6jCJgR-43" style="edgeStyle=orthogonalEdgeStyle;rounded=0;orthogonalLoop=1;jettySize=auto;html=1;entryX=0.5;entryY=0;entryDx=0;entryDy=0;" edge="1" parent="WIyWlLk6GJQsqaUBKTNV-1" source="NVemf6xpcmu2RJ6jCJgR-44" target="NVemf6xpcmu2RJ6jCJgR-45">
          <mxGeometry relative="1" as="geometry" />
        </mxCell>
        <mxCell id="NVemf6xpcmu2RJ6jCJgR-44" value="a shell script fetches latest release and prepares the environment for packaging" style="rounded=1;whiteSpace=wrap;html=1;fontSize=12;glass=0;strokeWidth=1;shadow=0;verticalAlign=middle;" vertex="1" parent="WIyWlLk6GJQsqaUBKTNV-1">
          <mxGeometry x="706.5" y="871" width="180" height="50" as="geometry" />
        </mxCell>
        <mxCell id="NVemf6xpcmu2RJ6jCJgR-45" value="a shell script creates the package and publish it to official repository" style="rounded=1;whiteSpace=wrap;html=1;fontSize=12;glass=0;strokeWidth=1;shadow=0;verticalAlign=middle;" vertex="1" parent="WIyWlLk6GJQsqaUBKTNV-1">
          <mxGeometry x="706.5" y="961" width="180" height="50" as="geometry" />
        </mxCell>
        <mxCell id="NVemf6xpcmu2RJ6jCJgR-46" value="" style="edgeStyle=orthogonalEdgeStyle;rounded=0;orthogonalLoop=1;jettySize=auto;html=1;entryX=0.5;entryY=0;entryDx=0;entryDy=0;" edge="1" parent="WIyWlLk6GJQsqaUBKTNV-1" target="NVemf6xpcmu2RJ6jCJgR-42">
          <mxGeometry relative="1" as="geometry">
            <mxPoint x="796.4999999999998" y="785" as="sourcePoint" />
            <mxPoint x="797" y="871" as="targetPoint" />
          </mxGeometry>
        </mxCell>
        <mxCell id="NVemf6xpcmu2RJ6jCJgR-42" value="Archlinux / AUR" style="rounded=1;whiteSpace=wrap;html=1;fontSize=12;glass=0;strokeWidth=1;shadow=0;" vertex="1" parent="WIyWlLk6GJQsqaUBKTNV-1">
          <mxGeometry x="736.5" y="784" width="120" height="40" as="geometry" />
        </mxCell>
        <mxCell id="NVemf6xpcmu2RJ6jCJgR-47" value="&lt;b style=&quot;font-size: 14px;&quot;&gt;AUTOMATICALLY GETS TRIGGERED&lt;br style=&quot;font-size: 14px;&quot;&gt;ON NEW TAG &#39;ARCH-x.x.x&#39;&lt;br style=&quot;font-size: 14px;&quot;&gt;&lt;/b&gt;" style="text;html=1;align=center;verticalAlign=middle;resizable=0;points=[];autosize=1;strokeColor=none;fillColor=none;fontSize=14;labelBackgroundColor=default;" vertex="1" parent="WIyWlLk6GJQsqaUBKTNV-1">
          <mxGeometry x="670" y="690" width="270" height="50" as="geometry" />
        </mxCell>
      </root>
    </mxGraphModel>
  </diagram>
</mxfile>
